<svg xmlns="http://www.w3.org/2000/svg" xmlns:xlink="http://www.w3.org/1999/xlink" width="62" zoomAndPan="magnify" viewBox="0 0 46.5 30.000001" height="40" preserveAspectRatio="xMidYMid meet" version="1.0"><defs><clipPath id="a90ffe5305"><path d="M 0.507812 0 L 45.507812 0 L 45.507812 28.609375 L 0.507812 28.609375 Z M 0.507812 0 " clip-rule="nonzero"/></clipPath></defs><g clip-path="url(#a90ffe5305)"><path fill="#000000" d="M 42.378906 0 L 4.121094 0 C 2.089844 0 0.535156 1.550781 0.535156 3.578125 L 0.535156 25.035156 C 0.535156 27.0625 2.210938 28.609375 4.121094 28.609375 L 42.378906 28.609375 C 44.410156 28.609375 45.964844 27.0625 45.964844 25.035156 L 45.964844 3.578125 C 45.964844 1.550781 44.289062 0 42.378906 0 Z M 42.378906 0 " fill-opacity="0.07" fill-rule="nonzero"/></g><path fill="#ffffff" d="M 42.378906 1.191406 C 43.691406 1.191406 44.769531 2.265625 44.769531 3.578125 L 44.769531 25.035156 C 44.769531 26.347656 43.691406 27.417969 42.378906 27.417969 L 4.121094 27.417969 C 2.808594 27.417969 1.730469 26.347656 1.730469 25.035156 L 1.730469 3.578125 C 1.730469 2.265625 2.808594 1.191406 4.121094 1.191406 L 42.378906 1.191406 " fill-opacity="1" fill-rule="nonzero"/><path fill="#b3131b" d="M 14.761719 6.078125 L 10.816406 6.078125 C 9.144531 6.199219 7.710938 6.796875 7.351562 8.226562 C 7.109375 8.941406 6.992188 9.773438 6.871094 10.609375 C 6.035156 14.542969 5.316406 18.597656 4.480469 22.410156 L 34.847656 22.410156 C 37.238281 22.410156 38.789062 21.933594 39.269531 20.027344 C 39.507812 19.191406 39.628906 18.238281 39.867188 17.285156 C 40.585938 13.589844 41.421875 9.894531 42.136719 6.078125 Z M 14.761719 6.078125 " fill-opacity="1" fill-rule="nonzero"/><path fill="#ffffff" d="M 8.164062 11.097656 L 8.886719 11.097656 L 8.886719 13.277344 L 11.636719 13.277344 L 11.636719 11.097656 L 12.359375 11.097656 L 12.359375 16.367188 L 11.636719 16.367188 L 11.636719 13.90625 L 8.886719 13.90625 L 8.886719 16.367188 L 8.164062 16.367188 Z M 13.378906 12.542969 L 14.039062 12.542969 L 14.039062 16.367188 L 13.382812 16.367188 L 13.382812 12.542969 Z M 13.378906 11.097656 L 14.039062 11.097656 L 14.039062 11.832031 L 13.382812 11.832031 L 13.382812 11.097656 Z M 17.398438 15.558594 C 17.597656 15.304688 17.699219 14.925781 17.699219 14.425781 C 17.699219 14.117188 17.652344 13.855469 17.566406 13.636719 C 17.398438 13.210938 17.089844 13 16.644531 13 C 16.195312 13 15.886719 13.222656 15.722656 13.671875 C 15.625 13.96875 15.582031 14.269531 15.589844 14.582031 C 15.589844 14.878906 15.632812 15.132812 15.722656 15.339844 C 15.890625 15.738281 16.199219 15.9375 16.644531 15.9375 C 16.960938 15.9375 17.210938 15.8125 17.398438 15.558594 Z M 14.96875 12.542969 L 15.597656 12.542969 L 15.597656 13.054688 C 15.726562 12.878906 15.867188 12.746094 16.019531 12.648438 C 16.238281 12.507812 16.496094 12.433594 16.789062 12.433594 C 17.226562 12.433594 17.597656 12.601562 17.902344 12.933594 C 18.207031 13.269531 18.359375 13.746094 18.359375 14.363281 C 18.359375 15.199219 18.140625 15.800781 17.703125 16.15625 C 17.417969 16.390625 17.097656 16.503906 16.730469 16.5 C 16.441406 16.5 16.195312 16.4375 16 16.308594 C 15.851562 16.207031 15.722656 16.082031 15.613281 15.9375 L 15.613281 17.902344 L 14.96875 17.902344 Z M 21.515625 12.632812 C 21.773438 12.761719 21.96875 12.925781 22.101562 13.128906 C 22.230469 13.324219 22.316406 13.550781 22.359375 13.808594 C 22.398438 13.984375 22.417969 14.265625 22.417969 14.65625 L 19.59375 14.65625 C 19.605469 15.042969 19.699219 15.359375 19.871094 15.59375 C 20.042969 15.828125 20.3125 15.945312 20.671875 15.945312 C 21.011719 15.945312 21.28125 15.835938 21.484375 15.613281 C 21.601562 15.480469 21.679688 15.332031 21.726562 15.164062 L 22.363281 15.164062 C 22.347656 15.304688 22.292969 15.460938 22.195312 15.636719 C 22.113281 15.792969 22.007812 15.9375 21.878906 16.0625 C 21.679688 16.253906 21.4375 16.382812 21.148438 16.449219 C 20.976562 16.488281 20.796875 16.507812 20.621094 16.507812 C 20.140625 16.507812 19.734375 16.332031 19.402344 15.984375 C 19.066406 15.636719 18.898438 15.148438 18.898438 14.519531 C 18.898438 13.90625 19.066406 13.402344 19.402344 13.019531 C 19.738281 12.632812 20.175781 12.441406 20.71875 12.441406 C 20.996094 12.441406 21.257812 12.503906 21.515625 12.632812 Z M 21.753906 14.140625 C 21.738281 13.90625 21.679688 13.679688 21.570312 13.472656 C 21.390625 13.160156 21.097656 13.003906 20.679688 13.003906 C 20.382812 12.996094 20.132812 13.105469 19.933594 13.324219 C 19.730469 13.539062 19.625 13.8125 19.613281 14.140625 Z M 23.230469 12.527344 L 23.847656 12.527344 L 23.847656 13.191406 C 23.898438 13.0625 24.019531 12.90625 24.21875 12.71875 C 24.421875 12.515625 24.667969 12.425781 24.957031 12.445312 L 25.105469 12.457031 L 25.105469 13.140625 C 25.035156 13.125 24.964844 13.121094 24.894531 13.121094 C 24.566406 13.121094 24.316406 13.226562 24.140625 13.4375 C 23.964844 13.644531 23.875 13.886719 23.878906 14.160156 L 23.878906 16.367188 L 23.230469 16.367188 Z M 28.210938 12.730469 C 28.484375 12.941406 28.648438 13.304688 28.703125 13.820312 L 28.074219 13.820312 C 28.042969 13.597656 27.957031 13.398438 27.8125 13.230469 C 27.675781 13.070312 27.457031 12.992188 27.15625 12.992188 C 26.742188 12.992188 26.445312 13.195312 26.269531 13.597656 C 26.152344 13.855469 26.09375 14.179688 26.09375 14.5625 C 26.09375 14.945312 26.175781 15.269531 26.339844 15.535156 C 26.503906 15.796875 26.761719 15.929688 27.109375 15.929688 C 27.378906 15.929688 27.59375 15.847656 27.75 15.683594 C 27.90625 15.519531 28.015625 15.292969 28.074219 15.011719 L 28.703125 15.011719 C 28.632812 15.519531 28.453125 15.890625 28.164062 16.128906 C 27.875 16.363281 27.507812 16.480469 27.058594 16.480469 C 26.554688 16.480469 26.152344 16.296875 25.855469 15.929688 C 25.554688 15.5625 25.402344 15.105469 25.402344 14.554688 C 25.402344 13.878906 25.570312 13.355469 25.898438 12.980469 C 26.226562 12.589844 26.644531 12.402344 27.152344 12.414062 C 27.585938 12.414062 27.941406 12.519531 28.210938 12.730469 Z M 30.054688 15.789062 C 30.191406 15.894531 30.351562 15.949219 30.539062 15.949219 C 30.765625 15.949219 30.988281 15.898438 31.199219 15.792969 C 31.371094 15.71875 31.507812 15.605469 31.605469 15.445312 C 31.703125 15.289062 31.75 15.117188 31.738281 14.933594 L 31.738281 14.414062 C 31.644531 14.472656 31.542969 14.511719 31.433594 14.539062 C 31.3125 14.574219 31.191406 14.597656 31.066406 14.613281 L 30.675781 14.660156 C 30.488281 14.679688 30.3125 14.726562 30.148438 14.808594 C 29.945312 14.921875 29.847656 15.101562 29.847656 15.347656 C 29.847656 15.535156 29.914062 15.679688 30.054688 15.789062 Z M 31.417969 14.039062 C 31.566406 14.023438 31.664062 13.960938 31.714844 13.855469 C 31.75 13.777344 31.761719 13.691406 31.757812 13.605469 C 31.757812 13.386719 31.679688 13.226562 31.523438 13.128906 C 31.367188 13.027344 31.140625 12.980469 30.847656 12.980469 C 30.511719 12.980469 30.269531 13.070312 30.128906 13.253906 C 30.035156 13.386719 29.984375 13.535156 29.972656 13.699219 L 29.371094 13.699219 C 29.382812 13.226562 29.535156 12.898438 29.832031 12.710938 C 30.148438 12.519531 30.492188 12.425781 30.863281 12.433594 C 31.316406 12.433594 31.683594 12.519531 31.96875 12.691406 C 32.25 12.863281 32.386719 13.132812 32.386719 13.496094 L 32.386719 15.710938 C 32.386719 15.777344 32.402344 15.832031 32.429688 15.871094 C 32.457031 15.910156 32.515625 15.929688 32.605469 15.929688 C 32.675781 15.933594 32.746094 15.925781 32.816406 15.910156 L 32.816406 16.386719 C 32.714844 16.417969 32.640625 16.433594 32.585938 16.441406 C 32.515625 16.449219 32.441406 16.453125 32.371094 16.453125 C 32.148438 16.453125 31.984375 16.371094 31.886719 16.214844 C 31.824219 16.105469 31.785156 15.984375 31.773438 15.859375 C 31.640625 16.03125 31.449219 16.183594 31.203125 16.308594 C 30.949219 16.4375 30.675781 16.503906 30.386719 16.5 C 30.03125 16.5 29.738281 16.390625 29.511719 16.171875 C 29.277344 15.953125 29.164062 15.683594 29.171875 15.363281 C 29.171875 15.003906 29.285156 14.730469 29.503906 14.53125 C 29.730469 14.335938 30.023438 14.214844 30.382812 14.171875 Z M 33.46875 12.527344 L 34.082031 12.527344 L 34.082031 13.191406 C 34.132812 13.0625 34.257812 12.90625 34.453125 12.71875 C 34.660156 12.515625 34.90625 12.425781 35.195312 12.445312 L 35.34375 12.457031 L 35.34375 13.140625 C 35.273438 13.125 35.199219 13.121094 35.128906 13.121094 C 34.804688 13.121094 34.554688 13.226562 34.378906 13.4375 C 34.199219 13.644531 34.113281 13.886719 34.113281 14.160156 L 34.113281 16.367188 L 33.46875 16.367188 Z M 36.574219 15.527344 C 36.75 15.804688 37.03125 15.945312 37.417969 15.945312 C 37.734375 15.945312 37.980469 15.816406 38.15625 15.558594 C 38.351562 15.300781 38.445312 14.929688 38.445312 14.449219 C 38.445312 13.964844 38.347656 13.605469 38.148438 13.371094 C 37.960938 13.136719 37.714844 13.019531 37.410156 13.023438 C 37.082031 13.011719 36.820312 13.136719 36.617188 13.394531 C 36.414062 13.644531 36.3125 14.011719 36.3125 14.492188 C 36.3125 14.902344 36.402344 15.25 36.574219 15.527344 Z M 38.03125 12.644531 C 38.144531 12.714844 38.277344 12.84375 38.421875 13.023438 L 38.421875 11.082031 L 39.042969 11.082031 L 39.042969 16.367188 L 38.460938 16.367188 L 38.460938 15.835938 C 38.328125 16.054688 38.152344 16.226562 37.925781 16.347656 C 37.71875 16.453125 37.484375 16.507812 37.214844 16.507812 C 36.785156 16.507812 36.414062 16.324219 36.101562 15.964844 C 35.785156 15.605469 35.628906 15.125 35.628906 14.527344 C 35.628906 13.96875 35.773438 13.484375 36.0625 13.074219 C 36.347656 12.664062 36.757812 12.457031 37.289062 12.457031 C 37.582031 12.457031 37.828125 12.519531 38.03125 12.644531 Z M 38.03125 12.644531 " fill-opacity="1" fill-rule="evenodd"/></svg>