<svg xmlns="http://www.w3.org/2000/svg" xmlns:xlink="http://www.w3.org/1999/xlink" width="62" zoomAndPan="magnify" viewBox="0 0 46.5 30.000001" height="40" preserveAspectRatio="xMidYMid meet" version="1.0"><defs><clipPath id="7f594acc13"><path d="M 0.507812 0.304688 L 45.507812 0.304688 L 45.507812 28.613281 L 0.507812 28.613281 Z M 0.507812 0.304688 " clip-rule="nonzero"/></clipPath></defs><g clip-path="url(#7f594acc13)"><path fill="#000000" d="M 41.953125 0.304688 L 4.0625 0.304688 C 2.046875 0.304688 0.507812 1.839844 0.507812 3.84375 L 0.507812 25.074219 C 0.507812 27.078125 2.167969 28.613281 4.0625 28.613281 L 41.953125 28.613281 C 43.96875 28.613281 45.507812 27.078125 45.507812 25.074219 L 45.507812 3.84375 C 45.507812 1.839844 43.847656 0.304688 41.953125 0.304688 Z M 41.953125 0.304688 " fill-opacity="0.07" fill-rule="nonzero"/></g><path fill="#ffffff" d="M 41.953125 1.484375 C 43.257812 1.484375 44.324219 2.546875 44.324219 3.84375 L 44.324219 25.074219 C 44.324219 26.371094 43.257812 27.433594 41.953125 27.433594 L 4.0625 27.433594 C 2.757812 27.433594 1.691406 26.371094 1.691406 25.074219 L 1.691406 3.84375 C 1.691406 2.546875 2.757812 1.484375 4.0625 1.484375 L 41.953125 1.484375 " fill-opacity="1" fill-rule="nonzero"/><path fill="#142688" d="M 34.019531 12.21875 L 33.664062 12.21875 C 33.191406 13.398438 32.835938 13.988281 32.480469 15.757812 L 34.730469 15.757812 C 34.375 13.988281 34.375 13.160156 34.019531 12.21875 Z M 37.453125 19.175781 L 35.441406 19.175781 C 35.324219 19.175781 35.324219 19.175781 35.203125 19.058594 L 34.96875 17.996094 L 34.851562 17.761719 L 32.007812 17.761719 C 31.890625 17.761719 31.769531 17.761719 31.769531 17.996094 L 31.414062 19.058594 C 31.414062 19.175781 31.296875 19.175781 31.296875 19.175781 L 28.808594 19.175781 L 29.046875 18.585938 L 32.480469 10.566406 C 32.480469 9.976562 32.835938 9.742188 33.429688 9.742188 L 35.203125 9.742188 C 35.324219 9.742188 35.441406 9.742188 35.441406 9.976562 L 37.097656 17.644531 C 37.21875 18.113281 37.335938 18.46875 37.335938 18.941406 C 37.453125 19.058594 37.453125 19.058594 37.453125 19.175781 Z M 21.585938 18.824219 L 22.0625 16.699219 C 22.179688 16.699219 22.296875 16.816406 22.296875 16.816406 C 23.125 17.171875 23.957031 17.40625 24.785156 17.289062 C 25.019531 17.289062 25.375 17.171875 25.613281 17.054688 C 26.207031 16.816406 26.207031 16.226562 25.730469 15.757812 C 25.496094 15.519531 25.140625 15.402344 24.785156 15.167969 C 24.3125 14.929688 23.835938 14.695312 23.480469 14.339844 C 22.0625 13.160156 22.535156 11.511719 23.363281 10.683594 C 24.074219 10.210938 24.429688 9.742188 25.375 9.742188 C 26.796875 9.742188 28.335938 9.742188 29.046875 9.976562 L 29.164062 9.976562 C 29.046875 10.683594 28.929688 11.273438 28.691406 11.980469 C 28.101562 11.746094 27.507812 11.511719 26.914062 11.511719 C 26.5625 11.511719 26.207031 11.511719 25.851562 11.628906 C 25.613281 11.628906 25.496094 11.746094 25.375 11.863281 C 25.140625 12.101562 25.140625 12.453125 25.375 12.691406 L 25.96875 13.160156 C 26.441406 13.398438 26.914062 13.632812 27.269531 13.867188 C 27.863281 14.222656 28.457031 14.8125 28.574219 15.519531 C 28.808594 16.582031 28.457031 17.523438 27.507812 18.234375 C 26.914062 18.703125 26.679688 18.941406 25.851562 18.941406 C 24.191406 18.941406 22.890625 19.058594 21.824219 18.703125 C 21.707031 18.941406 21.707031 18.941406 21.585938 18.824219 Z M 17.441406 19.175781 C 17.5625 18.351562 17.5625 18.351562 17.679688 17.996094 C 18.269531 15.402344 18.863281 12.691406 19.335938 10.09375 C 19.457031 9.859375 19.457031 9.742188 19.691406 9.742188 L 21.824219 9.742188 C 21.585938 11.15625 21.351562 12.21875 20.996094 13.515625 C 20.640625 15.285156 20.285156 17.054688 19.8125 18.824219 C 19.8125 19.058594 19.691406 19.058594 19.457031 19.058594 M 6.429688 9.976562 C 6.429688 9.859375 6.667969 9.742188 6.785156 9.742188 L 10.8125 9.742188 C 11.402344 9.742188 11.875 10.09375 11.996094 10.683594 L 13.0625 15.875 C 13.0625 15.992188 13.0625 15.992188 13.179688 16.109375 C 13.179688 15.992188 13.296875 15.992188 13.296875 15.992188 L 15.785156 9.976562 C 15.667969 9.859375 15.785156 9.742188 15.902344 9.742188 L 18.390625 9.742188 C 18.390625 9.859375 18.390625 9.859375 18.269531 9.976562 L 14.601562 18.585938 C 14.480469 18.824219 14.480469 18.941406 14.363281 19.058594 C 14.246094 19.175781 14.007812 19.058594 13.773438 19.058594 L 11.996094 19.058594 C 11.875 19.058594 11.757812 19.058594 11.757812 18.824219 L 9.863281 11.511719 C 9.628906 11.273438 9.273438 10.921875 8.796875 10.800781 C 8.085938 10.449219 6.785156 10.210938 6.546875 10.210938 Z M 6.429688 9.976562 " fill-opacity="1" fill-rule="nonzero"/></svg>